<?xml version="1.0" encoding="UTF-8" standalone="no"?>
<svg width="272px" height="46px" viewBox="0 0 272 46" version="1.1" xmlns="http://www.w3.org/2000/svg" xmlns:xlink="http://www.w3.org/1999/xlink">
    <!-- Generator: Sketch 39.1 (31720) - http://www.bohemiancoding.com/sketch -->
    <title>Group</title>
    <desc>Created with Sketch.</desc>
    <defs/>
    <g id="Symbols" stroke="none" stroke-width="1" fill="none" fill-rule="evenodd">
        <g id="Rapid7-logo">
            <g id="Group">
                <path d="M28.2524444,20.5722222 L27.6790741,20.5722222 L17.0920185,20.5722222 L19.5047407,9.61911111 L29.8330185,9.61911111 C33.2377222,9.61911111 35.2267593,11.454 35.2267593,14.1322222 C35.2242222,17.6435556 32.6542037,20.5722222 28.2524444,20.5722222 M46.6840185,13.0435556 C46.6840185,5.52255556 40.8792778,0 30.7438148,0 L10.1126296,0 L0,46 L11.5029259,46 L14.9761296,30.1913333 L21.7145,30.1913333 L28.3894444,46 L39.869537,46 L32.7379259,29.4425556 C41.2928148,28.1034444 46.6840185,21.2417778 46.6840185,13.0435556" id="Shape" fill="#FFFFFF"/>
                <path d="M66.5216852,28.7755556 L76.3780741,11.822 L80.1075185,28.7755556 L66.5216852,28.7755556 L66.5216852,28.7755556 Z M71.715,0 L45,46 L56.4724815,46 L60.9427407,38.3691111 L82.2183333,38.3818889 L83.8927778,46 L95.3703333,46 L85.3008333,0 L71.715,0 L71.715,0 Z" id="Shape" fill="#FFFFFF"/>
                <path d="M128.30613,20.5722222 L127.471444,20.5722222 L118.102167,20.5722222 L120.49713,9.61911111 L129.38437,9.61911111 C132.870259,9.61911111 135.029278,11.2904444 135.029278,14.1322222 C135.029278,17.6435556 132.375537,20.5722222 128.30613,20.5722222 M130.543796,0 L111.11263,0 L101,46 L112.477556,46 L115.983741,30.1836667 L128.798315,30.1938889 C139.763389,30.1938889 146.402815,21.9164444 146.402815,13.2147778 C146.402815,5.43566667 140.346907,0 130.543796,0" id="Shape" fill="#FFFFFF"/>
                <polygon id="Shape" fill="#FFFFFF" points="168.618093 0 157.11263 0 147 46 158.502926 46"/>
                <path d="M250.983704,0 L214.721833,0 C215.27237,0.559666667 215.810222,1.13722222 216.315093,1.748 C220.379426,6.66744444 222.528296,12.857 222.528296,19.6496667 C222.528296,30.1453333 218.101167,39.6162222 211,46 L233.211759,46 L243.750611,19.78 L230.540259,19.78 L232.750019,9.614 L258.972833,9.614 L245.196722,46 L250.585389,46 C263.17163,46.0766667 271.673241,35.6397778 271.673241,22.9591111 C271.673241,10.281 263.572481,0 250.983704,0" id="Shape" fill="#E95F26"/>
                <path d="M186.961407,36.3962222 L180.611204,36.3962222 L186.502204,9.62166667 L192.492148,9.61655556 C199.075759,9.61655556 202.767148,14.5462222 202.767148,20.7127778 C202.767148,29.0157778 196.853315,36.3962222 186.961407,36.3962222 M210.012926,7.49544444 C206.050074,2.691 199.540037,0 191.855352,0 L177.115167,0 L167,45.9974444 L185.548278,45.9974444 C192.735704,45.9974444 198.291815,44.3976667 202.515981,41.8472222 C211.111463,36.6338889 214.166056,27.4517778 214.166056,19.6496667 C214.163519,14.789 212.648907,10.6745556 210.012926,7.49544444" id="Shape" fill="#FFFFFF"/>
            </g>
        </g>
    </g>
</svg>